<svg width="500" height="500" viewBox="0 0 500 500" fill="none" xmlns="http://www.w3.org/2000/svg">
<g clip-path="url(#clip0_50_2)" filter="url(#filter0_i_50_2)">
<path fill-rule="evenodd" clip-rule="evenodd" d="M249.725 -0.85999C246.015 -0.87999 243.98 1.65001 243.41 4.61001L188.82 188.82C127.215 207.05 65.565 225.2 4.07 243.585C0.869997 244.545 -0.870004 246.455 -0.860004 249.845C-0.850004 253.23 2.125 255.255 4.885 256.105L188.635 310.545C206.935 372.36 225.135 434.225 243.585 495.93C244.545 499.13 246.455 500.87 249.845 500.86C253.23 500.85 255.255 497.875 256.105 495.115L310.73 310.74L495.305 256.055C498.975 254.86 500.84 253.435 500.855 249.725C500.88 246.015 498.35 243.98 495.39 243.41L310.555 188.635L256.055 4.69501C254.86 1.02501 253.435 -0.83999 249.725 -0.85499M249.725 71.305L286.59 195.735C287.773 199.729 289.935 203.365 292.881 206.311C295.826 209.257 299.461 211.421 303.455 212.605L428.69 249.72L303.635 286.77C299.64 287.955 296.004 290.12 293.059 293.068C290.113 296.016 287.951 299.654 286.77 303.65L249.725 428.665C237.35 386.945 224.975 345.235 212.605 303.45C211.423 299.455 209.261 295.818 206.315 292.871C203.37 289.924 199.735 287.76 195.74 286.575L71.355 249.725C112.86 237.41 154.355 225.1 195.92 212.8C199.917 211.617 203.554 209.453 206.501 206.506C209.448 203.559 211.612 199.922 212.795 195.925L249.725 71.305Z" fill="black"/>
<path fill-rule="evenodd" clip-rule="evenodd" d="M250 200C263.261 200 275.979 205.268 285.355 214.645C294.732 224.021 300 236.739 300 250C300 263.261 294.732 275.979 285.355 285.355C275.979 294.732 263.261 300 250 300C236.739 300 224.021 294.732 214.645 285.355C205.268 275.979 200 263.261 200 250C200 236.739 205.268 224.021 214.645 214.645C224.021 205.268 236.739 200 250 200ZM422.98 70.5C421.501 70.5044 420.06 70.9673 418.855 71.825L313.29 129.125C317.395 143.765 321.675 158.3 326.54 172.51L370.84 185.635L427.735 80.83C429.485 77.385 429.795 75.06 427.185 72.42C425.885 71.105 424.425 70.53 422.98 70.5ZM76.475 70.535C75.165 70.67 73.92 71.31 72.725 72.51C70.335 74.91 71.015 78.445 72.365 80.995L129.385 186.035C143.95 181.95 158.445 177.695 172.685 172.85L185.79 128.635C150.745 109.585 115.7 90.485 80.635 71.565C79.16 70.765 77.785 70.405 76.475 70.535ZM370.86 313.26C355.96 317.42 341.21 321.76 326.86 326.73C322.595 341.355 318.21 355.955 313.85 370.555L419.17 427.735C422.615 429.485 424.94 429.795 427.58 427.185C430.215 424.58 429.86 421.355 428.175 418.855L370.86 313.26ZM128.91 313.69C109.76 348.91 90.58 384.115 71.56 419.355C69.975 422.305 70.11 424.885 72.51 427.275C74.91 429.665 78.445 428.985 80.995 427.635L186.035 370.615C181.895 355.835 177.58 341.13 172.665 326.68C158.065 322.43 143.49 318.045 128.91 313.69Z" fill="black"/>
</g>
<defs>
<filter id="filter0_i_50_2" x="0" y="0" width="502" height="504" filterUnits="userSpaceOnUse" color-interpolation-filters="sRGB">
<feFlood flood-opacity="0" result="BackgroundImageFix"/>
<feBlend mode="normal" in="SourceGraphic" in2="BackgroundImageFix" result="shape"/>
<feColorMatrix in="SourceAlpha" type="matrix" values="0 0 0 0 0 0 0 0 0 0 0 0 0 0 0 0 0 0 127 0" result="hardAlpha"/>
<feOffset dx="2" dy="9"/>
<feGaussianBlur stdDeviation="2"/>
<feComposite in2="hardAlpha" operator="arithmetic" k2="-1" k3="1"/>
<feColorMatrix type="matrix" values="0 0 0 0 0 0 0 0 0 0 0 0 0 0 0 0 0 0 0.5 0"/>
<feBlend mode="normal" in2="shape" result="effect1_innerShadow_50_2"/>
</filter>
<clipPath id="clip0_50_2">
<rect width="500" height="500" fill="white"/>
</clipPath>
</defs>
</svg>
