<svg width="37" height="37" viewBox="0 0 37 37" fill="none" xmlns="http://www.w3.org/2000/svg">
<g filter="url(#filter0_d_58_22)">
<path d="M20 26.037C20 26.2924 19.8946 26.5374 19.7071 26.718C19.5196 26.8985 19.2652 27 19 27C18.7348 27 18.4804 26.8985 18.2929 26.718C18.1054 26.5374 18 26.2924 18 26.037V1.96296C18 1.70757 18.1054 1.46264 18.2929 1.28205C18.4804 1.10145 18.7348 1 19 1C19.2652 1 19.5196 1.10145 19.7071 1.28205C19.8946 1.46264 20 1.70757 20 1.96296V26.037Z" fill="#D9D9D9"/>
<path d="M19.1465 0.506836C19.4853 0.53926 19.8065 0.683865 20.0537 0.921875C20.337 1.19464 20.5 1.5687 20.5 1.96289V26.0371C20.5 26.4313 20.337 26.8054 20.0537 27.0781C19.7711 27.3502 19.3918 27.5 19 27.5C18.6082 27.5 18.2289 27.3502 17.9463 27.0781C17.663 26.8054 17.5 26.4313 17.5 26.0371V1.96289C17.5 1.5687 17.663 1.19464 17.9463 0.921875C18.2289 0.649786 18.6082 0.5 19 0.5L19.1465 0.506836Z" stroke="black"/>
</g>
<g filter="url(#filter1_d_58_22)">
<path d="M3 24H34V32H12C6 32 3 24 3 24Z" fill="#EBEBEB"/>
<path d="M34.5 23.5V32.5H12C8.76168 32.5 6.38166 30.3425 4.84961 28.2998C4.07683 27.2694 3.49939 26.2419 3.11523 25.4736C2.92285 25.0889 2.77777 24.7676 2.68066 24.541C2.6321 24.4277 2.59615 24.3375 2.57129 24.2754C2.55886 24.2443 2.54948 24.2199 2.54297 24.2031L2.5332 24.1787L2.53223 24.1768V24.1758L2.27832 23.5H34.5Z" stroke="black"/>
</g>
<g filter="url(#filter2_d_58_22)">
<path d="M5 22C5 22 5.5 14.6923 8.5 10.7949C11.5 6.89744 16.5 3 16.5 3C16.5 3 17 16.1538 17 21.0256V22C17 22 14 21.0256 11 21.0256C8 21.0256 5 22 5 22Z" fill="inherit"/>
<path d="M17 2.98145V2.99023C17.0002 2.99652 17.0005 3.00624 17.001 3.01855C17.0019 3.04358 17.0031 3.08122 17.0049 3.12988C17.0085 3.22749 17.0146 3.37195 17.0215 3.55664C17.0352 3.92595 17.0547 4.45877 17.0781 5.11328C17.125 6.423 17.1875 8.22041 17.25 10.1699C17.3749 14.0655 17.5 18.58 17.5 21.0254V22.6885L16.8457 22.4756H16.8447L16.8154 22.4658C16.7943 22.4592 16.7618 22.4493 16.7197 22.4365C16.6352 22.4109 16.5103 22.3736 16.3506 22.3291C16.0303 22.2399 15.5708 22.1213 15.0195 22.002C13.9129 21.7624 12.4509 21.5254 11 21.5254C9.54911 21.5254 8.08705 21.7624 6.98047 22.002C6.42918 22.1213 5.96974 22.2399 5.64941 22.3291C5.48966 22.3736 5.36476 22.4109 5.28027 22.4365C5.23819 22.4493 5.20571 22.4592 5.18457 22.4658L5.15527 22.4756H5.1543L4.4502 22.7041L4.50098 21.9658V21.9639C4.50106 21.9627 4.50181 21.961 4.50195 21.959C4.50224 21.955 4.50238 21.9488 4.50293 21.9414C4.50404 21.9265 4.50556 21.9049 4.50781 21.877C4.51237 21.8204 4.51933 21.7377 4.5293 21.6318C4.54926 21.4199 4.58135 21.1138 4.62891 20.7354C4.72402 19.9785 4.88294 18.9275 5.13672 17.7529C5.64049 15.4215 6.5336 12.53 8.10352 10.4902C9.63104 8.50575 11.6579 6.53327 13.291 5.06445C14.1096 4.32817 14.8337 3.71394 15.3535 3.28418C15.6133 3.06943 15.8224 2.90077 15.9668 2.78516C16.0388 2.72746 16.0946 2.68251 16.1328 2.65234C16.1518 2.63738 16.1668 2.62598 16.1768 2.61816C16.1817 2.61432 16.1859 2.61142 16.1885 2.60938L16.1924 2.60547L16.9629 2.00586L17 2.98145Z" stroke="black"/>
</g>
<g filter="url(#filter3_d_58_22)">
<path d="M21 6C21 6 26.5385 10.8 29.3077 14.8C31.8655 18.4944 33 22 33 22C33 22 30.2308 21.2 27.4615 21.2C24.6923 21.2 21.9231 22 21.9231 22V21.2C21.9231 14 21 6 21 6Z" fill="inherit"/>
<path d="M21.3271 5.62207H21.3281L21.332 5.62598C21.3349 5.62844 21.3393 5.63197 21.3447 5.63672C21.3556 5.64622 21.3717 5.66038 21.3926 5.67871C21.4345 5.71546 21.496 5.76967 21.5752 5.83984C21.7336 5.98026 21.962 6.18545 22.2451 6.44336C22.8111 6.95904 23.5951 7.68774 24.4658 8.54297C26.2015 10.2478 28.3062 12.4753 29.7188 14.5156C31.0192 16.394 31.9571 18.2221 32.5693 19.5801C32.8756 20.2595 33.1005 20.823 33.25 21.2178C33.3246 21.4148 33.3806 21.5699 33.418 21.6768C33.4366 21.7302 33.4514 21.7724 33.4609 21.8008L33.4756 21.8447V21.8457L33.7656 22.7412L32.8613 22.4805H32.8604C32.8594 22.4802 32.8577 22.4791 32.8555 22.4785C32.8509 22.4772 32.8436 22.4753 32.834 22.4727C32.8145 22.4672 32.7841 22.4588 32.7451 22.4482C32.6671 22.4272 32.5518 22.3969 32.4043 22.3604C32.1085 22.2871 31.684 22.1889 31.1748 22.0908C30.1531 21.8941 28.8027 21.7002 27.4619 21.7002C26.121 21.7002 24.7698 21.894 23.748 22.0908C23.2391 22.1889 22.8153 22.2871 22.5195 22.3604C22.3717 22.3969 22.2558 22.4272 22.1777 22.4482C22.1389 22.4587 22.1094 22.4672 22.0898 22.4727C22.0801 22.4754 22.072 22.4772 22.0674 22.4785C22.0653 22.4791 22.0634 22.4802 22.0625 22.4805H22.0615L21.4229 22.665V21.2002C21.4229 17.6189 21.1932 13.8332 20.9629 10.9395C20.8478 9.49355 20.7327 8.27177 20.6465 7.41211C20.6034 6.98271 20.5681 6.64363 20.543 6.41211C20.5304 6.29645 20.5204 6.20724 20.5137 6.14746C20.5104 6.11783 20.5076 6.09516 20.5059 6.08008C20.505 6.07254 20.5043 6.06624 20.5039 6.0625C20.5037 6.0608 20.504 6.05946 20.5039 6.05859L20.5029 6.05762L20.3555 4.78027L21.3271 5.62207Z" stroke="black"/>
</g>
<g filter="url(#filter4_d_58_22)">
<path d="M2 24C1.73478 24 1.48043 24.1054 1.29289 24.2929C1.10536 24.4804 1 24.7348 1 25C1 25.2652 1.10536 25.5196 1.29289 25.7071C1.48043 25.8946 1.73478 26 2 26H35V24H2Z" fill="#EBEBEB"/>
<path d="M35.5 23.5V26.5H2C1.60218 26.5 1.22076 26.3419 0.939453 26.0605C0.658148 25.7792 0.5 25.3978 0.5 25L0.507812 24.8516C0.541951 24.5083 0.693366 24.1855 0.939453 23.9395C1.22076 23.6581 1.60218 23.5 2 23.5H35.5Z" stroke="black"/>
</g>
<defs>
<filter id="filter0_d_58_22" x="17" y="0" width="5" height="29" filterUnits="userSpaceOnUse" color-interpolation-filters="sRGB">
<feFlood flood-opacity="0" result="BackgroundImageFix"/>
<feColorMatrix in="SourceAlpha" type="matrix" values="0 0 0 0 0 0 0 0 0 0 0 0 0 0 0 0 0 0 127 0" result="hardAlpha"/>
<feOffset dx="1" dy="1"/>
<feComposite in2="hardAlpha" operator="out"/>
<feColorMatrix type="matrix" values="0 0 0 0 0 0 0 0 0 0 0 0 0 0 0 0 0 0 1 0"/>
<feBlend mode="normal" in2="BackgroundImageFix" result="effect1_dropShadow_58_22"/>
<feBlend mode="normal" in="SourceGraphic" in2="effect1_dropShadow_58_22" result="shape"/>
</filter>
<filter id="filter1_d_58_22" x="1.557" y="23" width="34.443" height="11" filterUnits="userSpaceOnUse" color-interpolation-filters="sRGB">
<feFlood flood-opacity="0" result="BackgroundImageFix"/>
<feColorMatrix in="SourceAlpha" type="matrix" values="0 0 0 0 0 0 0 0 0 0 0 0 0 0 0 0 0 0 127 0" result="hardAlpha"/>
<feOffset dx="1" dy="1"/>
<feComposite in2="hardAlpha" operator="out"/>
<feColorMatrix type="matrix" values="0 0 0 0 0 0 0 0 0 0 0 0 0 0 0 0 0 0 1 0"/>
<feBlend mode="normal" in2="BackgroundImageFix" result="effect1_dropShadow_58_22"/>
<feBlend mode="normal" in="SourceGraphic" in2="effect1_dropShadow_58_22" result="shape"/>
</filter>
<filter id="filter2_d_58_22" x="3.90131" y="1.01097" width="15.0987" height="23.3973" filterUnits="userSpaceOnUse" color-interpolation-filters="sRGB">
<feFlood flood-opacity="0" result="BackgroundImageFix"/>
<feColorMatrix in="SourceAlpha" type="matrix" values="0 0 0 0 0 0 0 0 0 0 0 0 0 0 0 0 0 0 127 0" result="hardAlpha"/>
<feOffset dx="1" dy="1"/>
<feComposite in2="hardAlpha" operator="out"/>
<feColorMatrix type="matrix" values="0 0 0 0 0 0 0 0 0 0 0 0 0 0 0 0 0 0 1 0"/>
<feBlend mode="normal" in2="BackgroundImageFix" result="effect1_dropShadow_58_22"/>
<feBlend mode="normal" in="SourceGraphic" in2="effect1_dropShadow_58_22" result="shape"/>
</filter>
<filter id="filter3_d_58_22" x="19.7119" y="3.56032" width="15.8192" height="20.9229" filterUnits="userSpaceOnUse" color-interpolation-filters="sRGB">
<feFlood flood-opacity="0" result="BackgroundImageFix"/>
<feColorMatrix in="SourceAlpha" type="matrix" values="0 0 0 0 0 0 0 0 0 0 0 0 0 0 0 0 0 0 127 0" result="hardAlpha"/>
<feOffset dx="1" dy="1"/>
<feComposite in2="hardAlpha" operator="out"/>
<feColorMatrix type="matrix" values="0 0 0 0 0 0 0 0 0 0 0 0 0 0 0 0 0 0 1 0"/>
<feBlend mode="normal" in2="BackgroundImageFix" result="effect1_dropShadow_58_22"/>
<feBlend mode="normal" in="SourceGraphic" in2="effect1_dropShadow_58_22" result="shape"/>
</filter>
<filter id="filter4_d_58_22" x="0" y="23" width="37" height="5" filterUnits="userSpaceOnUse" color-interpolation-filters="sRGB">
<feFlood flood-opacity="0" result="BackgroundImageFix"/>
<feColorMatrix in="SourceAlpha" type="matrix" values="0 0 0 0 0 0 0 0 0 0 0 0 0 0 0 0 0 0 127 0" result="hardAlpha"/>
<feOffset dx="1" dy="1"/>
<feComposite in2="hardAlpha" operator="out"/>
<feColorMatrix type="matrix" values="0 0 0 0 0 0 0 0 0 0 0 0 0 0 0 0 0 0 1 0"/>
<feBlend mode="normal" in2="BackgroundImageFix" result="effect1_dropShadow_58_22"/>
<feBlend mode="normal" in="SourceGraphic" in2="effect1_dropShadow_58_22" result="shape"/>
</filter>
</defs>
</svg>
